<?xml version="1.0" standalone="no"?>
<!DOCTYPE svg PUBLIC "-//W3C//DTD SVG 20010904//EN"
 "http://www.w3.org/TR/2001/REC-SVG-20010904/DTD/svg10.dtd">
<svg version="1.0" xmlns="http://www.w3.org/2000/svg"
 width="1024.000000pt" height="1024.000000pt" viewBox="0 0 1024.000000 1024.000000"
 preserveAspectRatio="xMidYMid meet">
<metadata>
Created by potrace 1.14, written by Peter Selinger 2001-2017
</metadata>
<g transform="translate(0.000000,1024.000000) scale(0.100000,-0.100000)"
fill="#000000" stroke="none">
<path d="M4450 9475 c0 -6 -52 -10 -136 -10 -75 0 -138 -3 -141 -8 -2 -4 -9
-4 -15 -1 -15 10 -148 11 -148 1 0 -4 -5 -5 -11 -2 -17 11 -79 11 -79 0 0 -5
-4 -4 -9 4 -7 10 -13 12 -23 5 -7 -6 -43 -10 -80 -10 -39 1 -68 -3 -68 -9 0
-5 -5 -3 -10 5 -7 11 -10 11 -10 2 0 -8 -5 -10 -12 -6 -17 11 -338 12 -345 1
-2 -4 -11 -3 -19 4 -8 6 -14 7 -14 3 0 -5 -20 -9 -45 -8 -25 1 -45 -2 -45 -6
0 -5 -8 -6 -19 -3 -10 3 -22 0 -26 -7 -5 -8 -10 -8 -21 1 -10 8 -14 8 -14 1 0
-7 -7 -9 -17 -5 -11 5 -14 3 -8 -6 6 -10 3 -11 -15 -1 -15 8 -20 8 -16 1 6
-10 -20 -16 -46 -12 -5 0 -8 -4 -8 -9 0 -6 -6 -10 -12 -9 -39 5 -69 -2 -62
-13 6 -10 5 -10 -8 -1 -8 7 -18 10 -21 6 -4 -3 -23 -7 -42 -9 -20 -1 -43 -8
-52 -15 -10 -9 -14 -9 -10 -2 5 8 -1 11 -20 8 -16 -2 -28 -4 -28 -5 0 -8 -52
-5 -57 4 -6 8 -8 8 -8 -1 0 -7 -17 -12 -42 -12 -24 -1 -59 -4 -78 -7 -19 -3
-46 -6 -60 -8 -58 -7 -100 -19 -100 -30 0 -6 -5 -4 -10 4 -7 12 -10 12 -10 1
0 -7 -6 -11 -15 -8 -8 4 -17 2 -20 -4 -4 -5 -11 -7 -16 -4 -5 4 -9 1 -9 -5 0
-7 -7 -9 -15 -6 -9 3 -18 -1 -21 -9 -4 -8 -9 -13 -13 -11 -11 7 -62 -40 -54
-48 4 -4 -1 -4 -11 0 -14 5 -17 4 -12 -4 4 -7 3 -12 -2 -12 -15 0 -44 -69 -36
-83 5 -7 1 -7 -10 2 -15 13 -17 12 -12 -12 3 -17 0 -27 -7 -27 -8 0 -8 -3 1
-9 11 -7 11 -9 -1 -14 -9 -3 -13 -16 -12 -31 2 -14 -1 -26 -6 -26 -6 0 -8 -4
-4 -9 3 -5 1 -12 -5 -16 -6 -4 -8 -11 -5 -16 4 -5 2 -9 -3 -9 -9 0 -27 -70
-25 -97 0 -7 -3 -13 -7 -13 -10 0 -11 -17 -13 -180 0 -69 3 -150 7 -180 4 -30
10 -75 12 -100 3 -25 7 -61 10 -80 3 -19 7 -118 9 -219 3 -101 7 -186 10 -189
3 -3 0 -12 -7 -19 -9 -11 -9 -16 1 -23 8 -4 10 -13 6 -20 -9 -15 -10 -324 -1
-338 4 -6 2 -13 -3 -17 -7 -4 -7 -15 -1 -30 5 -14 6 -25 2 -25 -8 0 -6 -106 2
-127 3 -7 1 -13 -5 -13 -6 0 -7 -5 -4 -10 8 -13 9 -196 1 -209 -4 -5 -2 -12 4
-16 6 -4 8 -11 5 -16 -10 -16 -14 -48 -6 -53 4 -3 4 -32 1 -66 -3 -34 -2 -64
2 -66 4 -3 4 -13 -1 -22 -4 -9 -7 -26 -5 -36 3 -22 6 -107 4 -118 -4 -23 -1
-128 4 -136 3 -6 2 -13 -3 -16 -5 -3 -5 -21 -1 -41 4 -19 5 -35 1 -35 -3 0 -6
-31 -6 -70 0 -38 3 -70 7 -70 4 0 3 -12 -1 -28 -5 -15 -4 -37 0 -50 5 -12 5
-22 1 -22 -4 0 -6 -17 -5 -37 5 -105 5 -214 0 -220 -4 -3 -2 -14 3 -24 6 -10
7 -20 3 -22 -5 -3 -6 -48 -3 -101 3 -53 1 -96 -4 -96 -5 0 -3 -6 3 -13 6 -8 8
-16 5 -20 -9 -9 -10 -78 -2 -84 5 -2 5 -9 1 -16 -3 -6 -8 -623 -9 -1371 -2
-749 -5 -1377 -6 -1396 -2 -19 -7 -41 -12 -49 -7 -11 -6 -12 5 -6 11 7 12 6 2
-6 -7 -9 -15 -38 -17 -65 -2 -27 -8 -74 -12 -104 -4 -30 -8 -66 -10 -80 -1
-14 -3 -26 -4 -27 -3 -4 -7 -36 -9 -69 -1 -16 -5 -23 -13 -18 -7 5 -8 3 -3 -6
11 -18 12 -110 2 -110 -5 0 -6 -4 -2 -9 3 -5 8 -29 10 -53 6 -46 13 -83 15
-83 2 0 11 -38 12 -52 1 -7 6 -13 11 -13 6 0 8 -3 4 -6 -5 -5 9 -33 78 -161 7
-13 15 -20 18 -16 4 3 7 1 7 -6 0 -17 94 -111 111 -111 11 0 11 -2 -1 -10 -14
-9 -7 -14 13 -11 5 1 6 -3 3 -8 -4 -5 -2 -12 3 -16 5 -3 10 -14 10 -25 1 -11
1 -29 2 -40 0 -11 5 -22 10 -25 5 -4 7 -11 4 -16 -4 -5 -1 -9 5 -9 6 0 8 -5 5
-10 -3 -6 -1 -10 4 -10 6 0 11 -5 11 -11 0 -7 11 -22 25 -35 14 -13 25 -20 25
-17 0 3 8 -4 19 -15 10 -12 23 -22 30 -22 6 0 11 -3 11 -8 0 -4 9 -13 21 -20
17 -11 20 -11 13 0 -6 11 -5 11 8 0 9 -7 30 -14 47 -14 17 -1 31 -5 31 -10 0
-5 8 -4 18 1 11 6 23 6 28 1 5 -4 32 -10 59 -12 28 -2 55 -7 61 -11 6 -3 28
-5 48 -3 20 1 39 -1 42 -5 2 -4 20 -6 39 -4 19 2 35 0 35 -3 0 -4 10 -7 23 -8
43 -1 138 -14 148 -19 5 -4 9 -1 9 6 0 8 4 8 15 -1 8 -7 15 -10 15 -6 0 3 11
1 25 -4 17 -6 25 -6 25 1 0 6 5 7 12 3 7 -4 24 -8 38 -9 14 -1 36 -5 49 -9 18
-6 22 -5 15 5 -7 12 -5 12 9 1 9 -8 20 -11 25 -9 4 3 14 2 22 -3 9 -5 20 -4
29 3 12 10 13 9 7 -2 -7 -10 0 -12 33 -8 22 2 39 1 36 -3 -2 -4 17 -8 42 -9
26 -1 51 -7 55 -14 6 -9 8 -9 8 0 0 12 37 12 57 0 6 -4 22 -7 34 -6 36 1 96
-8 110 -16 8 -6 10 -4 4 6 -8 12 -6 12 8 0 9 -7 28 -11 42 -9 14 3 25 2 25 -1
0 -4 18 -6 40 -5 22 0 40 -3 40 -7 0 -4 12 -6 28 -4 15 2 35 -1 45 -6 11 -7
17 -6 17 2 0 8 4 8 15 -1 8 -7 23 -10 34 -7 10 2 26 0 36 -6 14 -7 16 -7 10 3
-6 10 -4 11 6 4 8 -5 25 -10 39 -10 14 -1 25 -3 25 -4 0 -1 16 -3 35 -4 19 -2
44 -7 54 -11 15 -7 17 -5 11 6 -7 11 -6 12 6 3 15 -12 19 -13 94 -17 28 -2 56
-7 64 -11 8 -5 16 -4 21 4 5 8 9 8 11 2 2 -6 29 -13 59 -15 30 -3 55 -6 55 -7
0 -2 14 -4 30 -5 66 -6 140 -14 140 -16 0 -2 57 -8 112 -12 23 -1 45 -6 49
-10 4 -4 14 -1 22 6 10 7 13 8 9 1 -4 -8 4 -13 23 -16 17 -3 30 0 30 6 0 7 3
7 8 1 4 -5 18 -10 32 -10 14 0 32 -3 41 -7 9 -4 22 -2 29 5 8 8 11 8 7 1 -4
-8 3 -12 21 -12 51 0 150 -10 161 -16 5 -4 21 -4 36 -2 14 3 25 1 25 -3 0 -4
16 -7 35 -6 19 2 35 -1 35 -5 0 -4 17 -7 38 -5 20 1 41 0 46 -3 9 -5 72 -11
163 -15 22 -1 39 -6 36 -10 -3 -5 9 -6 26 -4 20 3 31 1 31 -6 0 -7 5 -6 10 3
5 8 10 10 10 4 0 -7 14 -11 35 -8 20 1 34 0 31 -4 -3 -4 10 -6 29 -4 18 2 36
-1 40 -8 5 -8 10 -8 21 1 9 7 14 8 14 1 0 -6 8 -9 18 -7 9 1 25 -2 35 -7 12
-6 17 -5 17 4 0 9 3 10 8 2 4 -6 22 -10 40 -9 17 1 32 -3 32 -8 0 -5 6 -4 14
2 11 9 16 9 21 1 4 -7 18 -10 31 -7 13 2 24 0 24 -4 0 -5 6 -6 13 -3 8 3 26 0
40 -5 18 -7 27 -7 27 0 0 6 6 6 19 0 10 -6 21 -8 24 -4 4 3 13 0 22 -7 11 -9
15 -9 15 -1 0 8 6 9 18 3 9 -5 26 -8 37 -6 10 1 25 -2 32 -8 10 -8 13 -7 13 3
0 9 3 10 8 4 4 -5 18 -11 32 -12 14 -1 48 -5 75 -8 28 -3 68 -7 90 -9 22 -2
40 -5 40 -6 0 -1 18 -3 40 -4 22 -2 40 -4 40 -5 0 -2 18 -4 40 -6 22 -2 67 -6
100 -10 33 -3 77 -7 97 -8 21 -1 38 -4 38 -7 0 -3 17 -5 38 -4 20 0 41 -1 46
-4 5 -3 30 -7 55 -8 61 -4 139 -12 176 -18 34 -5 105 -15 180 -23 66 -7 241
-7 285 0 33 6 50 10 103 23 12 3 33 7 47 10 14 3 27 9 28 15 2 5 8 7 12 4 5
-3 43 11 85 31 41 20 81 37 88 38 15 4 43 14 85 33 18 8 37 11 42 8 6 -3 10
-2 10 3 0 6 12 13 28 18 31 8 27 7 70 25 17 7 32 17 32 22 0 4 5 5 10 2 6 -3
13 1 16 9 3 9 13 16 21 16 9 0 26 11 39 26 13 14 24 21 24 17 0 -4 20 15 45
42 61 68 65 73 65 85 0 5 5 10 10 10 6 0 10 7 10 15 0 8 4 15 9 15 9 0 56 100
53 113 -1 4 3 7 9 7 5 0 8 4 4 9 -3 5 -1 12 5 16 6 4 8 11 5 16 -4 5 -1 9 6 9
7 0 10 3 6 6 -3 3 -1 18 5 33 6 14 11 33 12 41 1 8 5 26 9 40 22 86 30 248 31
637 1 215 5 333 11 333 6 0 6 3 0 8 -13 9 -13 185 0 194 7 5 7 8 0 8 -11 0
-11 72 0 89 3 5 1 11 -4 13 -5 2 -6 24 -1 50 4 27 4 48 1 48 -3 0 -5 26 -3 57
2 57 2 66 2 101 -1 9 0 54 0 99 1 45 -1 86 -4 91 -2 4 -1 14 4 22 5 8 5 22 -1
32 -5 10 -6 18 -2 18 12 0 10 114 -2 122 -7 5 -7 8 0 8 10 0 11 70 1 97 -3 7
-2 13 3 13 7 0 7 51 0 70 -1 3 0 10 1 15 6 25 5 62 -2 83 -4 13 -5 21 0 19 4
-3 8 302 10 676 2 375 4 719 5 765 1 49 -2 82 -8 82 -7 0 -7 3 0 8 6 4 10 129
10 339 0 215 4 333 10 333 7 0 7 3 0 8 -12 8 -13 72 -2 90 5 6 5 12 0 12 -4 0
-9 18 -9 40 -1 23 4 40 10 40 7 0 7 3 1 8 -11 8 -14 132 -3 132 4 0 4 10 0 23
-5 12 -7 33 -5 47 7 62 8 90 1 90 -3 0 -3 14 2 30 5 19 5 28 -1 25 -5 -4 -5 3
0 18 6 16 6 28 -2 36 -8 8 -8 11 1 11 7 0 12 5 12 11 0 5 -5 7 -12 3 -7 -5 -8
-3 -3 6 5 8 10 210 12 450 2 239 5 443 7 453 2 9 0 17 -6 17 -5 0 -6 4 -3 10
11 18 11 270 0 270 -6 0 -6 3 0 8 7 4 10 55 10 129 -1 77 2 120 8 116 6 -4 7
-1 1 8 -11 17 -12 339 -1 339 5 0 5 5 1 11 -3 6 -8 52 -10 102 -6 138 -20 247
-33 257 -4 3 -6 15 -5 28 1 12 -3 22 -8 22 -5 0 -7 4 -3 9 3 5 1 12 -5 16 -5
3 -10 13 -10 21 0 19 -68 161 -80 169 -6 4 -8 11 -5 16 4 5 1 9 -4 9 -6 0 -11
7 -11 16 0 8 -4 12 -10 9 -5 -3 -10 0 -10 7 0 27 -170 188 -199 188 -6 0 -11
3 -11 8 0 7 -46 30 -105 53 -71 28 -96 31 -275 33 -91 1 -179 -1 -197 -5 -21
-4 -34 -3 -37 5 -3 7 -5 6 -5 -2 -1 -8 -6 -10 -13 -6 -7 5 -213 9 -458 11
-579 3 -710 6 -710 13 0 4 -7 7 -15 7 -8 0 -15 -4 -15 -9 0 -5 -8 -4 -18 1
-11 6 -24 6 -35 0 -12 -7 -17 -6 -17 2 0 8 -4 8 -13 1 -8 -7 -18 -7 -27 -2 -8
5 -19 6 -24 2 -14 -8 -46 -10 -46 -2 0 3 -9 6 -20 6 -11 0 -20 -4 -20 -8 0 -5
-9 -4 -19 2 -14 7 -22 7 -26 0 -5 -8 -11 -8 -20 0 -9 8 -15 8 -20 0 -4 -7 -12
-7 -26 0 -10 6 -19 7 -19 2 0 -10 -30 -9 -48 2 -6 4 -12 3 -12 -1 0 -10 -72
-9 -89 1 -6 4 -11 3 -11 -2 0 -10 -30 -9 -48 2 -6 4 -12 3 -12 -3 0 -10 -25
-9 -36 2 -4 3 -15 2 -25 -4 -13 -6 -19 -6 -19 1 0 12 -22 9 -32 -5 -5 -6 -8
-6 -8 2 0 7 -10 10 -26 7 -18 -3 -23 -1 -18 7 5 8 3 9 -7 4 -13 -9 -159 -11
-176 -3 -8 3 -227 3 -318 -1 -27 -2 -52 -2 -55 -1 -17 5 -70 4 -70 -2 0 -4 -6
-5 -12 -3 -25 9 -88 12 -88 4 0 -4 -13 -4 -30 1 -19 5 -32 5 -36 -2 -4 -6 -10
-5 -15 3 -7 11 -9 11 -9 1 0 -10 -5 -10 -20 -2 -15 8 -20 8 -20 -2 0 -8 -3 -9
-8 -3 -4 6 -25 10 -47 10 -22 0 -45 4 -52 8 -6 4 -14 3 -17 -2 -4 -6 -16 -7
-29 -2 -12 4 -75 7 -139 7 -73 -1 -118 3 -118 9 0 7 -3 7 -8 0 -4 -6 -57 -10
-122 -10 -65 0 -118 4 -122 10 -5 7 -8 7 -8 0z"/>
</g>
</svg>
